<svg viewBox="0 0 1440 1507" fill="none" xmlns="http://www.w3.org/2000/svg">
                <g clip-path="url(#clip0_27_2274)">
                    <path opacity="0.2" d="M380.529 964.731L380.529 2249.77C144.39 2249.77 -56.9978 2195.8 -261.564 2077.65L380.529 964.731Z" fill="url(#paint0_linear_27_2274)"></path>
                    <path opacity="0.2" d="M380.531 964.732L1022.62 -148.077C1227.19 -29.9286 1374.53 117.62 1492.71 322.322L380.531 964.732Z" fill="url(#paint1_linear_27_2274)"></path>
                    <path opacity="0.2" d="M380.531 964.732L380.531 -320.307C616.671 -320.307 818.058 -266.334 1022.62 -148.186L380.531 964.732Z" fill="url(#paint2_linear_27_2274)"></path>
                    <path opacity="0.2" d="M380.53 964.732L-261.564 2077.54C-466.13 1959.39 -613.471 1811.84 -731.65 1607.14L380.53 964.732Z" fill="url(#paint3_linear_27_2274)"></path>
                </g>
                <defs>
                    <linearGradient id="paint0_linear_27_2274" x1="381.053" y1="977.294" x2="304.633" y2="1509.09" gradientUnits="userSpaceOnUse">
                        <stop stop-color="white"></stop>
                        <stop offset="1" stop-color="#D9D9D9" stop-opacity="0"></stop>
                        <stop offset="1" stop-color="white" stop-opacity="0"></stop>
                    </linearGradient>
                    <linearGradient id="paint1_linear_27_2274" x1="381.055" y1="964.732" x2="616.596" y2="765.83" gradientUnits="userSpaceOnUse">
                        <stop stop-color="white"></stop>
                        <stop offset="1" stop-color="white" stop-opacity="0"></stop>
                    </linearGradient>
                    <linearGradient id="paint2_linear_27_2274" x1="526.567" y1="1699.62" x2="440.725" y2="-82.1181" gradientUnits="userSpaceOnUse">
                        <stop stop-color="white"></stop>
                        <stop offset="1" stop-color="white" stop-opacity="0"></stop>
                    </linearGradient>
                    <linearGradient id="paint3_linear_27_2274" x1="712.905" y1="625.552" x2="-74.3262" y2="1875.49" gradientUnits="userSpaceOnUse">
                        <stop stop-color="white"></stop>
                        <stop offset="1" stop-color="white" stop-opacity="0"></stop>
                    </linearGradient>
                    <clipPath id="clip0_27_2274">
                        <rect width="1507" height="1440" fill="white" transform="translate(0 1507) rotate(-90)"></rect>
                    </clipPath>
                </defs>
            </svg>