<svg viewBox="0 0 1440 619" fill="none" xmlns="http://www.w3.org/2000/svg">
                <g clip-path="url(#clip0_595_263)">
                    <path opacity="0.2" d="M518 363.5H-709.53C-709.53 137.928 -657.972 -54.4465 -545.111 -249.858L518 363.5Z" fill="url(#paint0_linear_595_263)"></path>
                    <path opacity="0.2" d="M518 363.5L1581.01 976.858C1468.15 1172.27 1327.2 1313.02 1131.66 1425.91L518 363.5Z" fill="url(#paint1_linear_595_263)"></path>
                    <path opacity="0.2" d="M518 363.5H1745.53C1745.53 589.072 1693.97 781.446 1581.11 976.858L518 363.5Z" fill="url(#paint2_linear_595_263)"></path>
                    <path opacity="0.2" d="M518 363.5L-545.007 -249.858C-432.146 -445.27 -291.201 -586.016 -95.6599 -698.907L518 363.5Z" fill="url(#paint3_linear_595_263)"></path>
                </g>
                <defs>
                    <linearGradient id="paint0_linear_595_263" x1="506" y1="364" x2="-2.00001" y2="291" gradientUnits="userSpaceOnUse">
                        <stop stop-color="white"></stop>
                        <stop offset="0.682292" stop-color="white" stop-opacity="0"></stop>
                        <stop offset="1" stop-color="#D9D9D9" stop-opacity="0"></stop>
                    </linearGradient>
                    <linearGradient id="paint1_linear_595_263" x1="518" y1="364" x2="708" y2="589" gradientUnits="userSpaceOnUse">
                        <stop stop-color="white"></stop>
                        <stop offset="1" stop-color="white" stop-opacity="0"></stop>
                    </linearGradient>
                    <linearGradient id="paint2_linear_595_263" x1="-184" y1="503" x2="1518" y2="421" gradientUnits="userSpaceOnUse">
                        <stop stop-color="white"></stop>
                        <stop offset="0.927083" stop-color="white" stop-opacity="0"></stop>
                    </linearGradient>
                    <linearGradient id="paint3_linear_595_263" x1="842" y1="681" x2="-352" y2="-71" gradientUnits="userSpaceOnUse">
                        <stop stop-color="white"></stop>
                        <stop offset="0.53125" stop-color="white" stop-opacity="0"></stop>
                    </linearGradient>
                    <clipPath id="clip0_595_263">
                        <rect width="1440" height="619" fill="white"></rect>
                    </clipPath>
                </defs>
            </svg>