<svg width="1440" height="412" viewBox="0 0 1440 412" fill="none" xmlns="http://www.w3.org/2000/svg">
            <path opacity="0.1" d="M622.685 228.71L-1847.87 228.448C-1847.92 -225.385 -1744.19 -612.417 -1517.09 -1005.55L622.685 228.71Z" fill="url(#paint0_linear_13_36)"></path>
            <path opacity="0.1" d="M622.686 228.711L2762.25 1462.97C2535.14 1856.1 2251.51 2139.24 1857.98 2366.32L622.686 228.711Z" fill="url(#paint1_linear_13_36)"></path>
            <path opacity="0.1" d="M622.686 228.711L3093.24 228.973C3093.29 682.806 2989.56 1069.84 2762.46 1462.97L622.686 228.711Z" fill="url(#paint2_linear_13_36)"></path>
            <path opacity="0.1" d="M622.686 228.71L-1516.88 -1005.55C-1289.77 -1398.68 -1006.13 -1681.82 -612.607 -1908.9L622.686 228.71Z" fill="url(#paint3_linear_13_36)"></path>
            <defs>
                <linearGradient id="paint0_linear_13_36" x1="598.534" y1="229.714" x2="-1493.63" y2="887.494" gradientUnits="userSpaceOnUse">
                    <stop></stop>
                    <stop offset="1" stop-color="#D9D9D9" stop-opacity="0"></stop>
                    <stop offset="1" stop-opacity="0"></stop>
                </linearGradient>
                <linearGradient id="paint1_linear_13_36" x1="622.691" y1="275.991" x2="727.203" y2="1020.45" gradientUnits="userSpaceOnUse">
                    <stop></stop>
                    <stop offset="1" stop-opacity="0"></stop>
                </linearGradient>
                <linearGradient id="paint2_linear_13_36" x1="-790.146" y1="509.225" x2="2635.28" y2="343.773" gradientUnits="userSpaceOnUse">
                    <stop></stop>
                    <stop offset="1" stop-opacity="0"></stop>
                </linearGradient>
                <linearGradient id="paint3_linear_13_36" x1="612.111" y1="202.644" x2="423.209" y2="-4.70092" gradientUnits="userSpaceOnUse">
                    <stop></stop>
                    <stop offset="1" stop-opacity="0"></stop>
                </linearGradient>
            </defs>
        </svg>